<svg width="184" height="123" viewBox="0 0 184 123" fill="none" xmlns="http://www.w3.org/2000/svg">
<path d="M14.1388 18.1614C14.7148 18.0654 15.3548 18.0014 16.0588 17.9693C16.7948 17.9054 17.5308 17.8574 18.2668 17.8254C19.0348 17.7614 19.7708 17.7294 20.4748 17.7294C21.1788 17.6974 21.8028 17.6814 22.3468 17.6814C25.0028 17.6814 27.2108 18.0974 28.9708 18.9294C30.7628 19.7294 32.1868 20.8814 33.2428 22.3854C34.3308 23.8574 35.0988 25.6334 35.5468 27.7134C35.9948 29.7934 36.2188 32.1134 36.2188 34.6734C36.2188 37.0094 35.9948 39.2494 35.5468 41.3934C35.1308 43.5054 34.3788 45.3774 33.2908 47.0094C32.2028 48.6094 30.7308 49.8894 28.8748 50.8494C27.0188 51.8094 24.6828 52.2894 21.8668 52.2894C21.4508 52.2894 20.8908 52.2734 20.1868 52.2414C19.4828 52.2094 18.7468 52.1614 17.9788 52.0974C17.2108 52.0654 16.4748 52.0174 15.7708 51.9534C15.0668 51.9214 14.5228 51.8734 14.1388 51.8094V18.1614ZM22.9708 23.2494C22.4588 23.2494 21.9308 23.2654 21.3868 23.2973C20.8748 23.2973 20.4748 23.3294 20.1868 23.3934V46.5294C20.2828 46.5614 20.4428 46.5934 20.6668 46.6254C20.9228 46.6254 21.1788 46.6414 21.4348 46.6734C21.7228 46.6734 21.9788 46.6894 22.2028 46.7214C22.4588 46.7214 22.6348 46.7214 22.7308 46.7214C24.1708 46.7214 25.3548 46.3854 26.2828 45.7134C27.2108 45.0414 27.9308 44.1454 28.4428 43.0254C28.9868 41.9054 29.3548 40.6254 29.5468 39.1854C29.7708 37.7134 29.8828 36.1774 29.8828 34.5774C29.8828 33.1054 29.7868 31.6814 29.5948 30.3054C29.4348 28.9294 29.0988 27.7294 28.5868 26.7054C28.1068 25.6494 27.4028 24.8174 26.4748 24.2094C25.5788 23.5694 24.4108 23.2494 22.9708 23.2494ZM54.8503 50.1294C54.0823 50.8334 53.1063 51.3774 51.9223 51.7614C50.7383 52.1454 49.4903 52.3374 48.1783 52.3374C46.6743 52.3374 45.3623 52.0494 44.2423 51.4734C43.1543 50.8654 42.2423 50.0174 41.5063 48.9294C40.8023 47.8094 40.2743 46.4814 39.9223 44.9454C39.6023 43.4094 39.4423 41.6814 39.4423 39.7614C39.4423 35.6654 40.1943 32.5454 41.6983 30.4014C43.2023 28.2574 45.3303 27.1854 48.0823 27.1854C48.9783 27.1854 49.8583 27.2974 50.7223 27.5214C51.6183 27.7454 52.4183 28.1934 53.1223 28.8654C53.8263 29.5374 54.3863 30.4814 54.8023 31.6974C55.2503 32.9134 55.4743 34.4974 55.4743 36.4494C55.4743 36.9934 55.4423 37.5854 55.3783 38.2254C55.3463 38.8334 55.2983 39.4734 55.2343 40.1454H43.0423C43.0423 41.5214 43.1543 42.7694 43.3783 43.8894C43.6023 45.0094 43.9543 45.9694 44.4343 46.7694C44.9143 47.5374 45.5223 48.1454 46.2583 48.5934C47.0263 49.0094 47.9703 49.2174 49.0903 49.2174C49.9543 49.2174 50.8023 49.0574 51.6343 48.7374C52.4983 48.4174 53.1543 48.0334 53.6023 47.5854L54.8503 50.1294ZM52.1623 37.2654C52.2263 34.8654 51.8903 33.1054 51.1543 31.9854C50.4183 30.8654 49.4103 30.3054 48.1303 30.3054C46.6583 30.3054 45.4903 30.8654 44.6263 31.9854C43.7623 33.1054 43.2503 34.8654 43.0903 37.2654H52.1623ZM65.3375 41.8254L66.2975 46.5774H66.3935L67.2575 41.7294L71.4815 27.7614H75.1295L66.9215 52.2894H65.2415L56.8895 27.7614H60.8255L65.3375 41.8254ZM37.6108 100.369C36.5868 101.105 35.2748 101.633 33.6748 101.953C32.1068 102.273 30.4908 102.433 28.8268 102.433C26.8108 102.433 24.8908 102.129 23.0668 101.521C21.2748 100.881 19.6908 99.8734 18.3148 98.4974C16.9388 97.0894 15.8348 95.2814 15.0028 93.0734C14.2028 90.8334 13.8028 88.1294 13.8028 84.9614C13.8028 81.6654 14.2508 78.9134 15.1468 76.7054C16.0748 74.4654 17.2588 72.6734 18.6988 71.3294C20.1708 69.9534 21.8028 68.9774 23.5948 68.4014C25.3868 67.7934 27.1788 67.4894 28.9708 67.4894C30.8908 67.4894 32.5068 67.6174 33.8188 67.8734C35.1628 68.1294 36.2668 68.4334 37.1308 68.7854L35.8348 74.3534C35.0988 74.0014 34.2188 73.7454 33.1948 73.5854C32.2028 73.4254 30.9868 73.3454 29.5468 73.3454C26.8908 73.3454 24.7468 74.2894 23.1148 76.1774C21.5148 78.0654 20.7148 80.9934 20.7148 84.9614C20.7148 86.6894 20.9068 88.2734 21.2908 89.7134C21.6748 91.1214 22.2508 92.3374 23.0188 93.3614C23.8188 94.3534 24.7948 95.1374 25.9468 95.7134C27.1308 96.2574 28.4908 96.5294 30.0268 96.5294C31.4668 96.5294 32.6828 96.3854 33.6748 96.0974C34.6668 95.8094 35.5308 95.4414 36.2668 94.9934L37.6108 100.369ZM41.1433 89.7614C41.1433 85.6974 42.0393 82.5934 43.8313 80.4494C45.6553 78.2734 48.2633 77.1854 51.6553 77.1854C53.4473 77.1854 54.9993 77.4894 56.3113 78.0974C57.6553 78.6734 58.7593 79.5214 59.6233 80.6414C60.4873 81.7294 61.1273 83.0574 61.5433 84.6254C61.9593 86.1614 62.1673 87.8734 62.1673 89.7614C62.1673 93.8254 61.2553 96.9454 59.4313 99.1214C57.6393 101.265 55.0473 102.337 51.6553 102.337C49.8633 102.337 48.2953 102.049 46.9513 101.473C45.6393 100.865 44.5513 100.017 43.6873 98.9294C42.8233 97.8094 42.1833 96.4814 41.7673 94.9454C41.3513 93.3774 41.1433 91.6494 41.1433 89.7614ZM45.1273 89.7614C45.1273 90.9774 45.2393 92.1454 45.4633 93.2654C45.7193 94.3854 46.1033 95.3614 46.6153 96.1934C47.1273 97.0254 47.7993 97.6974 48.6313 98.2094C49.4633 98.7214 50.4713 98.9774 51.6553 98.9774C56.0073 99.0094 58.1833 95.9374 58.1833 89.7614C58.1833 88.5134 58.0553 87.3294 57.7993 86.2094C57.5753 85.0894 57.2073 84.1134 56.6953 83.2814C56.1833 82.4494 55.5113 81.7934 54.6793 81.3134C53.8473 80.8014 52.8393 80.5454 51.6553 80.5454C47.3033 80.5134 45.1273 83.5854 45.1273 89.7614ZM71.6776 77.7614V91.4414C71.6776 92.6894 71.7416 93.7934 71.8696 94.7534C72.0296 95.6814 72.2856 96.4654 72.6376 97.1054C72.9896 97.7134 73.4696 98.1774 74.0776 98.4974C74.6856 98.8174 75.4536 98.9774 76.3816 98.9774C77.2456 98.9774 78.0136 98.8494 78.6856 98.5934C79.3576 98.3054 79.9496 97.9214 80.4616 97.4414C81.0056 96.9614 81.4696 96.4174 81.8536 95.8094C82.2696 95.1694 82.6056 94.4974 82.8616 93.7934V77.7614H86.7016V94.9454C86.7016 96.0974 86.7336 97.2974 86.7976 98.5454C86.8936 99.7614 87.0376 100.833 87.2296 101.761H84.5896L83.6296 97.9694H83.3896C82.6536 99.2174 81.6616 100.257 80.4136 101.089C79.1656 101.921 77.5816 102.337 75.6616 102.337C74.3816 102.337 73.2456 102.177 72.2536 101.857C71.2936 101.569 70.4776 101.041 69.8056 100.273C69.1656 99.5054 68.6696 98.4814 68.3176 97.2014C67.9976 95.8894 67.8376 94.2414 67.8376 92.2574V77.7614H71.6776ZM105.425 81.4574C104.465 81.1374 103.553 80.9774 102.689 80.9774C101.313 80.9774 100.225 81.3614 99.4246 82.1294C98.6246 82.8654 98.1286 83.8094 97.9366 84.9614V101.761H94.0966V77.7614H96.7846L97.5046 80.6894H97.6966C98.3046 79.6014 99.0246 78.7694 99.8566 78.1934C100.721 77.5854 101.809 77.2814 103.121 77.2814C104.049 77.2814 105.089 77.4414 106.241 77.7614L105.425 81.4574ZM120.969 95.2334C120.969 94.2734 120.681 93.5214 120.105 92.9774C119.529 92.4334 118.809 91.9854 117.945 91.6334C117.113 91.2494 116.185 90.8974 115.161 90.5774C114.169 90.2254 113.241 89.7934 112.377 89.2814C111.545 88.7374 110.841 88.0494 110.265 87.2174C109.689 86.3854 109.401 85.2654 109.401 83.8574C109.401 81.5534 110.057 79.8734 111.369 78.8174C112.681 77.7294 114.505 77.1854 116.841 77.1854C118.569 77.1854 120.009 77.3454 121.161 77.6654C122.345 77.9534 123.369 78.3054 124.233 78.7214L123.321 81.8894C122.585 81.5374 121.689 81.2334 120.633 80.9774C119.609 80.6894 118.505 80.5454 117.321 80.5454C115.913 80.5454 114.873 80.7854 114.201 81.2654C113.561 81.7454 113.241 82.5774 113.241 83.7614C113.241 84.5934 113.529 85.2494 114.105 85.7294C114.681 86.1774 115.385 86.5934 116.217 86.9774C117.081 87.3294 118.009 87.6814 119.001 88.0334C120.025 88.3854 120.953 88.8494 121.785 89.4254C122.649 90.0014 123.369 90.7374 123.945 91.6334C124.521 92.4974 124.809 93.6494 124.809 95.0894C124.809 96.1134 124.633 97.0734 124.281 97.9694C123.961 98.8654 123.449 99.6334 122.745 100.273C122.041 100.913 121.161 101.409 120.105 101.761C119.081 102.145 117.865 102.337 116.457 102.337C114.633 102.337 113.081 102.161 111.801 101.809C110.521 101.457 109.449 101.041 108.585 100.561L109.737 97.2974C110.473 97.7134 111.433 98.0974 112.617 98.4494C113.801 98.8014 115.001 98.9774 116.217 98.9774C117.593 98.9774 118.729 98.7054 119.625 98.1614C120.521 97.6174 120.969 96.6414 120.969 95.2334ZM148.132 99.8414C147.172 100.609 145.956 101.217 144.484 101.665C143.044 102.113 141.508 102.337 139.876 102.337C138.052 102.337 136.468 102.049 135.124 101.473C133.78 100.865 132.676 100.017 131.812 98.9294C130.948 97.8094 130.308 96.4814 129.892 94.9454C129.476 93.4094 129.268 91.6814 129.268 89.7614C129.268 85.6654 130.18 82.5454 132.004 80.4014C133.828 78.2574 136.436 77.1854 139.828 77.1854C140.916 77.1854 142.004 77.3134 143.092 77.5694C144.18 77.7934 145.156 78.2414 146.02 78.9134C146.884 79.5854 147.588 80.5454 148.132 81.7934C148.676 83.0094 148.948 84.6254 148.948 86.6414C148.948 87.6974 148.852 88.8654 148.66 90.1454H133.252C133.252 91.5534 133.396 92.8014 133.684 93.8894C133.972 94.9774 134.42 95.9054 135.028 96.6734C135.636 97.4094 136.42 97.9854 137.38 98.4014C138.372 98.7854 139.572 98.9774 140.98 98.9774C142.068 98.9774 143.156 98.7854 144.244 98.4014C145.332 98.0174 146.148 97.5694 146.692 97.0574L148.132 99.8414ZM139.876 80.5454C137.988 80.5454 136.468 81.0414 135.316 82.0334C134.196 83.0254 133.524 84.7214 133.3 87.1214H145.204C145.204 84.6894 144.74 82.9934 143.812 82.0334C142.884 81.0414 141.572 80.5454 139.876 80.5454ZM165.547 95.2334C165.547 94.2734 165.259 93.5214 164.683 92.9774C164.107 92.4334 163.387 91.9854 162.523 91.6334C161.691 91.2494 160.763 90.8974 159.739 90.5774C158.747 90.2254 157.819 89.7934 156.955 89.2814C156.123 88.7374 155.419 88.0494 154.843 87.2174C154.267 86.3854 153.979 85.2654 153.979 83.8574C153.979 81.5534 154.635 79.8734 155.947 78.8174C157.259 77.7294 159.083 77.1854 161.419 77.1854C163.147 77.1854 164.587 77.3454 165.739 77.6654C166.923 77.9534 167.947 78.3054 168.811 78.7214L167.899 81.8894C167.163 81.5374 166.267 81.2334 165.211 80.9774C164.187 80.6894 163.083 80.5454 161.899 80.5454C160.491 80.5454 159.451 80.7854 158.779 81.2654C158.139 81.7454 157.819 82.5774 157.819 83.7614C157.819 84.5934 158.107 85.2494 158.683 85.7294C159.259 86.1774 159.963 86.5934 160.795 86.9774C161.659 87.3294 162.587 87.6814 163.579 88.0334C164.603 88.3854 165.531 88.8494 166.363 89.4254C167.227 90.0014 167.947 90.7374 168.523 91.6334C169.099 92.4974 169.387 93.6494 169.387 95.0894C169.387 96.1134 169.211 97.0734 168.859 97.9694C168.539 98.8654 168.027 99.6334 167.323 100.273C166.619 100.913 165.739 101.409 164.683 101.761C163.659 102.145 162.443 102.337 161.035 102.337C159.211 102.337 157.659 102.161 156.379 101.809C155.099 101.457 154.027 101.041 153.163 100.561L154.315 97.2974C155.051 97.7134 156.011 98.0974 157.195 98.4494C158.379 98.8014 159.579 98.9774 160.795 98.9774C162.171 98.9774 163.307 98.7054 164.203 98.1614C165.099 97.6174 165.547 96.6414 165.547 95.2334Z" fill="black"/>
<path d="M2 52.0341V2H88.1111M110.333 121H182V52.0341" stroke="black" stroke-width="4"/>
</svg>
